<svg xmlns="http://www.w3.org/2000/svg" viewBox="40.00 -698.00 2236.00 710.00" role="img" aria-label="t15n">
  <title>t15n</title>
  <path d="M528 0L331 0Q263 0 231-36.50Q199-73 199-131L199-131L199-428L40-428L40-516L153-516Q182-516 194-527.50Q206-539 206-569L206-569L206-698L308-698L308-516L528-516L528-428L308-428L308-88L528-88L528 0ZM1150 0L673 0L673-93L869-93L869-616L861-616L699-443L630-505L808-698L981-698L981-93L1150-93L1150 0ZM1681-698L1681-601L1364-601L1346-353L1354-353Q1378-394 1412-418.50Q1446-443 1505-443L1505-443Q1550-443 1588.50-428Q1627-413 1655.50-385Q1684-357 1700.50-316.50Q1717-276 1717-225L1717-225Q1717-173 1700-129.50Q1683-86 1651-54.50Q1619-23 1572-5.50Q1525 12 1465 12L1465 12Q1418 12 1381.50 1.50Q1345-9 1316.50-26.50Q1288-44 1267-66.50Q1246-89 1230-113L1230-113L1312-177Q1325-157 1339.50-139.50Q1354-122 1372-109Q1390-96 1413.50-89Q1437-82 1467-82L1467-82Q1532-82 1566-117.50Q1600-153 1600-214L1600-214L1600-222Q1600-283 1565.50-317Q1531-351 1467-351L1467-351Q1420-351 1393-334Q1366-317 1346-296L1346-296L1253-309L1279-698L1681-698ZM1948 0L1839 0L1839-516L1948-516L1948-428L1953-428Q1961-448 1973.50-466.50Q1986-485 2004-498.50Q2022-512 2046-520Q2070-528 2102-528L2102-528Q2180-528 2228-477Q2276-426 2276-332L2276-332L2276 0L2167 0L2167-316Q2167-439 2060-439L2060-439Q2039-439 2019-433.50Q1999-428 1983-417Q1967-406 1957.50-389Q1948-372 1948-350L1948-350L1948 0Z" fill="currentColor"></path>
</svg>